<svg width="31" height="31" viewBox="4 3 23 23" fill="none" xmlns="http://www.w3.org/2000/svg">
    <g filter="url(#filter0_b_4_431)">
        <path d="M15.5 11.3021C14.3867 11.3021 13.3189 11.7444 12.5317 12.5316C11.7444 13.3189 11.3021 14.3867 11.3021 15.5C11.3021 16.6134 11.7444 17.6811 12.5317 18.4684C13.3189 19.2556 14.3867 19.6979 15.5 19.6979C16.6134 19.6979 17.6812 19.2556 18.4684 18.4684C19.2557 17.6811 19.698 16.6134 19.698 15.5C19.698 14.3867 19.2557 13.3189 18.4684 12.5316C17.6812 11.7444 16.6134 11.3021 15.5 11.3021Z" fill="white"/>
        <path fill-rule="evenodd" clip-rule="evenodd" d="M8.74456 4.02032C13.2344 3.52264 17.7655 3.52264 22.2554 4.02032C24.7083 4.29416 26.6858 6.2252 26.9738 8.68711C27.5063 13.2398 27.5063 17.839 26.9738 22.3917C26.6858 24.8536 24.7083 26.7847 22.2567 27.0598C17.7664 27.5576 13.2348 27.5576 8.74456 27.0598C6.29168 26.7847 4.31414 24.8536 4.0261 22.393C3.49358 17.8399 3.49358 13.2402 4.0261 8.68711C4.31414 6.2252 6.29168 4.29416 8.74456 4.02032ZM21.9583 7.78941C21.6157 7.78941 21.2872 7.92549 21.045 8.16773C20.8027 8.40996 20.6666 8.7385 20.6666 9.08107C20.6666 9.42364 20.8027 9.75218 21.045 9.99442C21.2872 10.2367 21.6157 10.3727 21.9583 10.3727C22.3009 10.3727 22.6294 10.2367 22.8717 9.99442C23.1139 9.75218 23.25 9.42364 23.25 9.08107C23.25 8.7385 23.1139 8.40996 22.8717 8.16773C22.6294 7.92549 22.3009 7.78941 21.9583 7.78941ZM9.36456 15.5394C9.36456 13.9122 10.011 12.3516 11.1616 11.201C12.3122 10.0504 13.8728 9.40399 15.5 9.40399C17.1272 9.40399 18.6878 10.0504 19.8384 11.201C20.989 12.3516 21.6354 13.9122 21.6354 15.5394C21.6354 17.1666 20.989 18.7272 19.8384 19.8778C18.6878 21.0284 17.1272 21.6748 15.5 21.6748C13.8728 21.6748 12.3122 21.0284 11.1616 19.8778C10.011 18.7272 9.36456 17.1666 9.36456 15.5394Z" fill="white"/>
    </g>
    <defs>
        <filter id="filter0_b_4_431" x="-4" y="-4" width="39" height="39" filterUnits="userSpaceOnUse" color-interpolation-filters="sRGB">
            <feFlood flood-opacity="0" result="BackgroundImageFix"/>
            <feGaussianBlur in="BackgroundImageFix" stdDeviation="2"/>
            <feComposite in2="SourceAlpha" operator="in" result="effect1_backgroundBlur_4_431"/>
            <feBlend mode="normal" in="SourceGraphic" in2="effect1_backgroundBlur_4_431" result="shape"/>
        </filter>
    </defs>
</svg>
