<svg width="34" height="26" viewBox="0 0 34 26" fill="none" xmlns="http://www.w3.org/2000/svg">
<g filter="url(#filter0_b_13_527)">
<path d="M10.6803 25.2357C23.511 25.2357 30.5299 15.5244 30.5299 7.11745C30.5299 6.84569 30.5299 6.57005 30.5171 6.2983C31.8836 5.39469 33.063 4.27596 34 2.99453C32.7235 3.50864 31.3709 3.84747 29.9859 4.00003C31.4448 3.20347 32.5374 1.95016 33.0607 0.473035C31.6901 1.21478 30.1899 1.73548 28.6259 2.01233C27.5744 0.989415 26.183 0.311763 24.6672 0.0843423C23.1514 -0.143078 21.5958 0.0924251 20.2413 0.754373C18.8869 1.41632 17.8092 2.46777 17.1752 3.74586C16.5412 5.02395 16.3863 6.45734 16.7344 7.82401C13.9607 7.69697 11.2472 7.03877 8.76997 5.89211C6.2927 4.74545 4.10695 3.13593 2.3545 1.16795C1.46485 2.57153 1.19334 4.2318 1.59512 5.8116C1.9969 7.3914 3.04184 8.7723 4.51775 9.67388C3.41177 9.63956 2.33011 9.36828 1.36 8.88191V8.96926C1.36191 10.4396 1.91953 11.8643 2.93861 13.0024C3.95769 14.1406 5.37571 14.9224 6.953 15.2157C6.35431 15.3664 5.73586 15.4415 5.11488 15.439C4.67709 15.4402 4.24018 15.4031 3.81012 15.3283C4.25592 16.594 5.12396 17.7007 6.29265 18.4933C7.46134 19.2858 8.87216 19.7246 10.3275 19.7482C7.85518 21.522 4.80123 22.484 1.6575 22.4794C1.10356 22.4815 0.549999 22.4523 0 22.392C3.19072 24.2502 6.89626 25.2368 10.6803 25.2357Z" fill="white"/>
</g>
<defs>
<filter id="filter0_b_13_527" x="-4" y="-4" width="42" height="33.2357" filterUnits="userSpaceOnUse" color-interpolation-filters="sRGB">
<feFlood flood-opacity="0" result="BackgroundImageFix"/>
<feGaussianBlur in="BackgroundImageFix" stdDeviation="2"/>
<feComposite in2="SourceAlpha" operator="in" result="effect1_backgroundBlur_13_527"/>
<feBlend mode="normal" in="SourceGraphic" in2="effect1_backgroundBlur_13_527" result="shape"/>
</filter>
</defs>
</svg>
